<svg id="visual" viewBox="0 0 960 540" width="960" height="540" xmlns="http://www.w3.org/2000/svg" xmlns:xlink="http://www.w3.org/1999/xlink" version="1.1"><rect x="0" y="0" width="960" height="540" fill="#000000"></rect><path d="M330 0L314.8 18C299.7 36 269.3 72 237 108C204.7 144 170.3 180 160.7 216C151 252 166 288 174.5 324C183 360 185 396 177.8 432C170.7 468 154.3 504 146.2 522L138 540L0 540L0 522C0 504 0 468 0 432C0 396 0 360 0 324C0 288 0 252 0 216C0 180 0 144 0 108C0 72 0 36 0 18L0 0Z" fill="#050513"></path></svg>